# xmcd
#
# Track frame offsets:
#	150
#	10900
#	22351
#	32336
#	44124
#	54353
#	66180
#	76974
#	89841
#	101597
#	112470
#	123526
#	133957
#	143761
#	155469
#	167607
#	177509
#	187850
#	198755
#	210754
#	222049
#	233997
#	245938
#	255896
#	267983
#	277348
#	287261
#	298772
#	308778
#	318054
#	329234
#	338328
#
# Disc length: 4630 seconds
# Revision: 1
# Processed by: cddbd v1.5.2PL0 Copyright (c) Steve Scherf et al.
# Submitted via: dBpowerAMP V12.0
#
DISCID=e5121420
DTITLE=Various Artist - RCA Hillbilly Volume 8
DYEAR=1993
DGENRE=Country
TTITLE0=Jack Turner - Hound Dog
TTITLE1=Porter Wagoner - Settin’ The Woods On Fire
TTITLE2=Homer and Jethro - The West Virginny Hills
TTITLE3=Hank Snow - One More Ride
TTITLE4=Bobby Williamson - Steady Diet
TTITLE5=Country All-stars - Do Something
TTITLE6=Curtis Gordon - Rocky Road Of Love
TTITLE7=Hank Penny - Taxes Taxes
TTITLE8=Pee Wee King - The Ghost and Honest Joe
TTITLE9=Tex Williams - Sinful
TTITLE10=Dave Rich - Aint It Fine
TTITLE11=Tommy Sands - A Dime and A Dollar
TTITLE12=The Lonesome Pine Fiddlers - Honky Tonk Blues
TTITLE13=Floyd Wilson - Baby, Baby Baby
TTITLE14=Elton Britt - Rotation Blues
TTITLE15=Grandpa Jones - The Closer To The Bone
TTITLE16=Jimmy Murphy - Rambin' Heart
TTITLE17=Eddy Arnold - I'm Gonna Lock My Heart
TTITLE18=Hank Penny With Jaye P. Morgan - Fan It
TTITLE19=Homer and Jethro - Child Psychology
TTITLE20=Jimmy Martin - Chalk Up Another
TTITLE21=Pee Wee King - Going Back To A.L.A
TTITLE22=Grandpa Jones - T.V. Blues
TTITLE23=Texas Jim - Jaw, Jaw, Yap, Yap, Yap
TTITLE24=Dave Rich - I'm Glad
TTITLE25=Porter Wagoner - Hey Maw
TTITLE26=Johnnie Lee - Oo Oooh Daddy
TTITLE27=Tommy Sands - Love Pains
TTITLE28=Myrna Lorrie - That's What Sweethearts Do
TTITLE29=Joyce Moore - You Can't Kiss Me Too Soon
TTITLE30=Nita Rita and Ruby - But Love You Just The Same
TTITLE31=Minnie Pearl - Me
EXTD=
EXTT0=
EXTT1=
EXTT2=
EXTT3=
EXTT4=
EXTT5=
EXTT6=
EXTT7=
EXTT8=
EXTT9=
EXTT10=
EXTT11=
EXTT12=
EXTT13=
EXTT14=
EXTT15=
EXTT16=
EXTT17=
EXTT18=
EXTT19=
EXTT20=
EXTT21=
EXTT22=
EXTT23=
EXTT24=
EXTT25=
EXTT26=
EXTT27=
EXTT28=
EXTT29=
EXTT30=
EXTT31=
PLAYORDER=
